<svg xmlns="http://www.w3.org/2000/svg" xmlns:svg="http://www.w3.org/2000/svg" version="1.1" xml:space="preserve" viewBox="5 -19 1930 224">
			<metadata id="metadata8">image/svg+xml</metadata>
			<g class="layer">
						<title>Layer 1</title>
						<g id="svg_1">
									<g id="svg_2">
												<path d="m1.12,183.17l1939.39,0l0,-20.24l-1939.39,0l0,20.24" fill="#f5f5f4" fill-rule="nonzero" id="path1396"></path>
												<path d="m1940.52,102.21l0,-101.47c-0.01,0 -141.67,0 -141.67,0l0,0.24l0,121.47l-101.17,0l0,-60.71l-0.15,-0.15l20.37,0l0,40.6c0,0.01 60.72,0.01 60.72,0.01l0,-101.47l-141.67,0l0,0.24l0,121.47l-101.17,0l0,-60.71l-0.17,-0.15l20.4,0l0,40.6c0,0.01 60.72,0.01 60.72,0.01l0,-101.47l-141.65,0l0,0.24c-0.01,0 -0.01,121.47 -0.01,121.47l-101.17,0l0,-60.71l-0.2,-0.15l20.43,0l0,40.6c0,0.01 60.72,0.01 60.72,0.01l0,-101.47c-0.01,0 -20.24,0 -20.24,0l-121.43,0l0,0.24l0,121.47l-97.85,0l0,-60.71l-0.21,-0.15l20.43,0l0,20.36l0,20.24c0,0.01 60.72,0.01 60.72,0.01l0,-101.47l-141.66,0l0,0.24c-0.01,0 -0.01,121.47 -0.01,121.47l-101.17,0l0,-60.71l-0.25,-0.15l20.47,0l0,40.6c0,0.01 60.72,0.01 60.72,0.01l0,-101.47c-0.01,0 -141.66,0 -141.66,0l0,0.24c-0.01,0 -0.01,121.47 -0.01,121.47l-101.17,0l0,-60.71l-0.21,-0.15l20.43,0l0,40.6c0,0.01 60.72,0.01 60.72,0.01l0,-101.47c-0.01,0 -141.66,0 -141.66,0l0,0.24c-0.01,0 -0.01,121.47 -0.01,121.47l-101.17,0l0,-60.71l-0.19,-0.15l20.42,0l0,40.6c0,0.01 60.72,0.01 60.72,0.01l0,-101.47c-0.01,0 -141.66,0 -141.66,0l0,0.24c-0.01,0 -0.01,121.47 -0.01,121.47l-101.17,0l0,-60.71l-0.22,-0.15l20.44,0l0,40.6c0,0.01 60.72,0.01 60.72,0.01l0,-101.47c-0.01,0 -141.66,0 -141.66,0l0,0.24c-0.01,0 -0.01,121.47 -0.01,121.47l-101.17,0l0,-60.71l-0.21,-0.15l20.43,0l0,40.6c0,0.01 60.72,0.01 60.72,0.01l0,-101.47c-0.01,0 -141.66,0 -141.66,0l0,0.24c-0.01,0 -0.01,121.47 -0.01,121.47l-101.17,0l0,-60.71l-0.3,-0.15l20.52,0l0,40.6c0,0.01 60.72,0.01 60.72,0.01l0,-101.47c-0.01,0 -20.24,0 -20.24,0l-121.42,0l0,0.24c-0.01,0 -0.01,121.47 -0.01,121.47l-101.17,0l0,-60.71l-0.31,-0.15l20.54,0l0,40.6c0,0.01 60.72,0.01 60.72,0.01l0,-101.47c-0.01,0 -141.66,0 -141.66,0l0,0.24c-0.01,0 -0.01,121.47 -0.01,121.47l-20.23,0l0,20.24l40.47,0l0,-121.71l101.18,0l0,60.97l-20.24,0l0,-40.48l0,-0.13l-60.71,0l0,101.35l141.66,0l0,-121.71l101.18,0l0,60.97l-20.24,0l0,-40.48l0,-0.13l-60.71,0l0,101.35l141.65,0l0,-121.71l101.18,0l0,60.97l-20.24,0l0,-40.48l0,-0.13l-60.71,0l0,81.11l0,20.24l141.65,0l0,-121.71l101.18,0l0,60.97l-20.24,0l0,-40.48l0,-0.13l-60.71,0l0,101.35l141.66,0l0,-121.71l101.18,0l0,60.97l-20.24,0l0,-40.48l0,-0.13l-60.71,0l0,101.35l20.24,0l121.42,0l0,-121.71l101.18,0l0,60.97l-20.24,0l0,-40.48l0,-0.13l-60.71,0l0,101.35l141.65,0l0,-121.71l101.18,0l0,60.97l-20.24,0l0,-40.48l0,-0.13l-60.71,0l0,81.11l0,20.24l20.24,0l121.41,0l0,-121.71l101.18,0l0,60.97l-20.24,0l0,-40.48l0,-0.13l-60.71,0l0,101.35l138.33,0l0,-121.71l101.19,0l0,60.97l-20.24,0l0,-40.48l0,-0.13l-60.71,0l0,101.35l141.65,0l0,-121.71l101.19,0l0,60.97l-20.24,0l0,-40.48l0,-0.13l-60.71,0l0,101.35l141.65,0l0,-121.71l101.19,0l0,60.97l-20.24,0l0,-40.48l0,-0.13l-60.71,0c0,0.04 0,101.35 0,101.35l141.65,0l0,-121.71l101.19,0l0,60.97l-20.24,0l0,-40.48l0,-0.13l-60.71,0c0,0.04 0,101.35 0,101.35l20.24,0l80.95,0l0,-20.24l-80.95,0l0,-60.71l-0.15,-0.15l20.37,0l0,40.6c0,0.01 60.72,0.01 60.72,0.01" fill="#f5f5f4" fill-rule="nonzero" id="path1398"></path>
									</g>
						</g>
			</g>
</svg>
