<svg xmlns="http://www.w3.org/2000/svg" xmlns:svg="http://www.w3.org/2000/svg" version="1.1" xml:space="preserve" viewBox="186.35 228.32 1095.68 102.18">
			<metadata id="metadata8">image/svg+xml</metadata>
			<defs id="defs6">
						<clipPath clipPathUnits="userSpaceOnUse" id="clipPath24">
									<path d="m24943,909.1l-23590.3,0l0,19786.3l23590.3,0l0,-19786.3z" id="path22"></path>
						</clipPath>
			</defs>
			<g class="layer" fill="#f5f5f4">
						<title>Layer 1</title>
						<g id="g346" transform="scale(1.22037) matrix(0.133333, 0, 0, -0.133333, 0, 2360.42)">
									<path d="m8038.76,16090.7l-236.21,0l0,209.3l236.21,0l0,-209.3" fill-rule="nonzero" id="path348"></path>
						</g>
						<g id="g550" transform="scale(1.18903) matrix(0.133333, 0, 0, -0.133333, 0, 2422.64)">
									<path d="m1809.68,16085.2l-644.4,0l0,214.8l644.4,0l0,-214.8" fill-rule="nonzero" id="path552"></path>
						</g>
						<g id="g554" transform="scale(1.22037) matrix(0.133333, 0, 0, -0.133333, 0, 2360.42)">
									<path d="m2178.75,16090.7l-624.83,0l0,209.3l624.83,0l0,-209.3" fill-rule="nonzero" id="path556"></path>
						</g>
						<g id="g558" transform="scale(1.22029) matrix(0.133333, 0, 0, -0.133333, 0, 2360.58)">
									<path d="m1554.02,15686.7l0,613.3l209.3,0l0,-613.3l-209.3,0" fill-rule="nonzero" id="path560"></path>
						</g>
						<g id="g562" transform="scale(1.22037) matrix(0.133333, 0, 0, -0.133333, 0, 2360.42)">
									<path d="m1344.64,16090.7l-236.2,0l0,209.3l236.2,0l0,-209.3" fill-rule="nonzero" id="path564"></path>
						</g>
						<g id="g566" transform="scale(1.18903) matrix(0.133333, 0, 0, -0.133333, 0, 2422.64)">
									<path d="m2668.88,16085.2l-644.4,0l0,214.8l644.4,0l0,-214.8" fill-rule="nonzero" id="path568"></path>
						</g>
						<g id="g570" transform="scale(1.22037) matrix(0.133333, 0, 0, -0.133333, 0, 2360.42)">
									<path d="m3015.89,16090.7l-624.82,0l0,209.3l624.82,0l0,-209.3" fill-rule="nonzero" id="path572"></path>
						</g>
						<g id="g574" transform="scale(1.22029) matrix(0.133333, 0, 0, -0.133333, 0, 2360.58)">
									<path d="m2391.22,15686.7l0,613.3l209.29,0l0,-613.3l-209.29,0" fill-rule="nonzero" id="path576"></path>
						</g>
						<g id="g578" transform="scale(1.18903) matrix(0.133333, 0, 0, -0.133333, 0, 2422.64)">
									<path d="m3528.09,16085.2l-644.41,0l0,214.8l644.41,0l0,-214.8" fill-rule="nonzero" id="path580"></path>
						</g>
						<g id="g582" transform="scale(1.22037) matrix(0.133333, 0, 0, -0.133333, 0, 2360.42)">
									<path d="m3853.03,16090.7l-624.82,0l0,209.3l624.82,0l0,-209.3" fill-rule="nonzero" id="path584"></path>
						</g>
						<g id="g586" transform="scale(1.22029) matrix(0.133333, 0, 0, -0.133333, 0, 2360.58)">
									<path d="m3228.41,15686.7l0,613.3l209.29,0l0,-613.3l-209.29,0" fill-rule="nonzero" id="path588"></path>
						</g>
						<g id="g590" transform="scale(1.18903) matrix(0.133333, 0, 0, -0.133333, 0, 2422.64)">
									<path d="m4387.28,16085.2l-644.4,0l0,214.8l644.4,0l0,-214.8" fill-rule="nonzero" id="path592"></path>
						</g>
						<g id="g594" transform="scale(1.22037) matrix(0.133333, 0, 0, -0.133333, 0, 2360.42)">
									<path d="m4690.17,16090.7l-624.83,0l0,209.3l624.83,0l0,-209.3" fill-rule="nonzero" id="path596"></path>
						</g>
						<g id="g598" transform="scale(1.22029) matrix(0.133333, 0, 0, -0.133333, 0, 2360.58)">
									<path d="m4065.59,15686.7l0,613.3l209.3,0l0,-613.3l-209.3,0" fill-rule="nonzero" id="path600"></path>
						</g>
						<g id="g602" transform="scale(1.18903) matrix(0.133333, 0, 0, -0.133333, 0, 2422.64)">
									<path d="m5253.2,16085.2l-644.4,0l0,214.8l644.4,0l0,-214.8" fill-rule="nonzero" id="path604"></path>
						</g>
						<g id="g606" transform="scale(1.22037) matrix(0.133333, 0, 0, -0.133333, 0, 2360.42)">
									<path d="m5533.85,16090.7l-624.83,0l0,209.3l624.83,0l0,-209.3" fill-rule="nonzero" id="path608"></path>
						</g>
						<g id="g610" transform="scale(1.22029) matrix(0.133333, 0, 0, -0.133333, 0, 2360.58)">
									<path d="m4909.32,15686.7l0,613.3l209.3,0l0,-613.3l-209.3,0" fill-rule="nonzero" id="path612"></path>
						</g>
						<g id="g614" transform="scale(1.18903) matrix(0.133333, 0, 0, -0.133333, 0, 2422.64)">
									<path d="m6112.41,16085.2l-644.4,0l0,214.8l644.4,0l0,-214.8" fill-rule="nonzero" id="path616"></path>
						</g>
						<g id="g618" transform="scale(1.22037) matrix(0.133333, 0, 0, -0.133333, 0, 2360.42)">
									<path d="m6370.99,16090.7l-624.83,0l0,209.3l624.83,0l0,-209.3" fill-rule="nonzero" id="path620"></path>
						</g>
						<g id="g622" transform="scale(1.22029) matrix(0.133333, 0, 0, -0.133333, 0, 2360.58)">
									<path d="m5746.52,15686.7l0,613.3l209.29,0l0,-613.3l-209.29,0" fill-rule="nonzero" id="path624"></path>
						</g>
						<g id="g626" transform="scale(1.18903) matrix(0.133333, 0, 0, -0.133333, 0, 2422.64)">
									<path d="m6971.6,16085.2l-644.4,0l0,214.8l644.4,0l0,-214.8" fill-rule="nonzero" id="path628"></path>
						</g>
						<g id="g630" transform="scale(1.22037) matrix(0.133333, 0, 0, -0.133333, 0, 2360.42)">
									<path d="m7208.13,16090.7l-624.83,0l0,209.3l624.83,0l0,-209.3" fill-rule="nonzero" id="path632"></path>
						</g>
						<g id="g634" transform="scale(1.22029) matrix(0.133333, 0, 0, -0.133333, 0, 2360.58)">
									<path d="m6583.7,15686.7l0,613.3l209.3,0l0,-613.3l-209.3,0" fill-rule="nonzero" id="path636"></path>
						</g>
						<g id="g638" transform="scale(1.18903) matrix(0.133333, 0, 0, -0.133333, 0, 2422.64)">
									<path d="m7830.81,16085.2l-644.4,0l0,214.8l644.4,0l0,-214.8" fill-rule="nonzero" id="path640"></path>
						</g>
						<g id="g642" transform="scale(1.22037) matrix(0.133333, 0, 0, -0.133333, 0, 2360.42)">
									<path d="m7841.24,16090.7l-420.8,0l0,209.3l420.8,0l0,-209.3" fill-rule="nonzero" id="path644"></path>
						</g>
						<g id="g646" transform="scale(1.22029) matrix(0.133333, 0, 0, -0.133333, 0, 2360.58)">
									<path d="m7420.9,15686.7l0,613.3l209.29,0l0,-613.3l-209.29,0" fill-rule="nonzero" id="path648"></path>
						</g>
			</g>
</svg>
