<svg xmlns="http://www.w3.org/2000/svg" xmlns:svg="http://www.w3.org/2000/svg" version="1.1" xml:space="preserve" viewBox="1833.02 1780.47 568.78 572.32">
			<metadata id="metadata8">image/svg+xml</metadata>
			<g class="layer" fill="#000000">
						<title>Layer 1</title>
						<g id="g6372" transform="scale(1.08164) matrix(0.133333, 0, 0, -0.133333, 0, 2465.39)">
									<path d="m15927.5,3796.72c36.6,132.48 112.1,240.37 236.5,296.22c23.5,10.07 48.3,17.65 74.3,22.46c-24.2,-16.83 -50.3,-37.44 -76.5,-62.13c-28,-25.7 -47.1,-50.94 -66.4,-73.12c-19.2,-22.19 -33.2,-41.89 -43.2,-57.42c31.4,28.29 85.3,69.52 153.8,108.63c33.5,18.49 65.7,32.27 94,42.16c-2.5,-17.84 -6.3,-38 -12.2,-59.26c-5.7,-21.36 -13.2,-43.82 -27.2,-65.64c-26.3,-43.82 -62.5,-86.81 -115.8,-116.58c-81.8,-42.44 -161.1,-41.98 -217.3,-35.32" fill-rule="nonzero" id="path6374"></path>
						</g>
						<g id="g6376" transform="scale(1.10526) matrix(0.133333, 0, 0, -0.133333, 0, 2412.71)">
									<path d="m16250.8,3587.67c-27.5,6.69 -62.1,20.36 -95.5,45.96c-33.4,25.52 -64.2,62.34 -93.2,115.63c-22.1,42.8 -33.8,85.05 -39,124.23c-7.7,39.44 -10.9,76.27 -9.9,106.76c24.2,-12.04 51,-28.23 78.3,-51.03c66.6,-53.93 99.7,-120.79 119.1,-168.74c-3.9,23.62 -10.1,53.56 -20.6,86.05c-10.3,32.48 -30.2,68.03 -53.4,102.05c-33.8,48.86 -69.6,80.44 -99.6,101.06c34.9,-6.51 67.8,-19.54 97.8,-39.26c36.9,-24.25 67,-57.18 91.4,-94.91c12.1,-18.82 22.8,-38.82 32.1,-59.36c7.8,-20.44 14.1,-41.52 19.3,-62.51c10.5,-42.07 16.3,-84.06 19.3,-121.24c3.1,-37.1 -1.2,-68.5 -2.8,-91.2c-9.6,0.27 -24.7,1.9 -43.3,6.51" fill-rule="nonzero" id="path6378"></path>
						</g>
						<g id="g6380" transform="scale(1.07814) matrix(0.133333, 0, 0, -0.133333, 0, 2473.4)">
									<path d="m15875.7,3525.53c15.4,30.43 31.9,58.72 53.3,82.93c22.3,23.92 42.8,46.83 66.9,66.4c24.2,19.48 51.4,35.9 81.1,48.79c29.4,13.08 57.8,23.66 90.3,29.13c9.7,1.76 19.7,3.15 29.8,3.8c-10.3,-5.66 -20.8,-11.59 -31.3,-18.27c-29.4,-19.39 -57.7,-37.94 -80,-55.38c-22.2,-17.53 -39.2,-33.76 -51.5,-46.65c34.2,21.06 93,49.53 168.5,71.61c35.5,10.75 68.6,17.25 97.2,21.05c-4.5,-15.86 -10.9,-35.15 -19.9,-56.02c-10.8,-20.32 -25.1,-41.83 -42.3,-62.98c-17.3,-21.15 -37.7,-41.65 -61.7,-59.27c-25.1,-17.25 -55.9,-30.7 -89.1,-39.7c-85.2,-22.44 -158.3,-5.29 -211.3,14.56" fill-rule="nonzero" id="path6382"></path>
						</g>
						<g id="g6384" transform="scale(1.09858) matrix(0.133333, 0, 0, -0.133333, 0, 2427.38)">
									<path d="m16188.8,3196.21c-49.7,24.76 -119.8,84.29 -143.1,195.98c-12,49.61 -15.5,97.12 -10.9,138.45c1.8,20.94 6.3,40.05 9.4,58.35c2.7,18.3 6.4,35.04 10.3,49.7c20.1,-16.48 41.5,-37.59 62.4,-64.9c47.9,-64.9 65.2,-136 74.1,-186.06c1.1,23.39 1.3,53.43 -2,86.93c-3.2,33.41 -9.3,70.09 -26,108.14c-14.2,34.77 -30.7,63.08 -46.9,85.74c20.2,-12.1 38.9,-26.67 55.7,-44.23c128.2,-126.98 85.9,-360.29 55.8,-443.66c-8.7,2.54 -22.5,7.27 -38.8,15.56" fill-rule="nonzero" id="path6386"></path>
						</g>
						<g id="g6388" transform="scale(1.0693) matrix(0.133333, 0, 0, -0.133333, 0, 2493.84)">
									<path d="m15860.6,3327.78c5.6,6.36 11.5,12.25 17.3,18.24c5.1,6.36 10.4,12.53 15.9,18.42c11.1,11.88 22.8,22.63 35.1,32.55c24.7,19.63 52.9,35.07 78.6,50.03c52.7,28.62 118.6,41.24 180.7,39.84c21,-0.94 42.4,-3.84 64,-8.98c-23.5,-4.67 -46.7,-12.81 -74.9,-21.51c-70.1,-21.7 -117.2,-51.81 -147.1,-71.35c38.2,12.62 96,30.67 173.6,35.16c36.5,2.15 69.9,0.84 96.2,-1.31c-37.8,-56.11 -114.7,-141.87 -239.4,-147.11c-42.7,-2.61 -80.5,3.75 -113.9,14.6c-34.2,11.59 -63.1,26.93 -86.1,41.42" fill-rule="nonzero" id="path6390"></path>
						</g>
						<g id="g6392" transform="scale(1.08323) matrix(0.133333, 0, 0, -0.133333, 0, 2461.77)">
									<path d="m16183.6,2894.41c-42.7,34.15 -97.9,106.26 -98.5,219.43c-0.4,24.01 2.9,45.88 5.8,67.86c2.6,22.15 7,42.92 12.7,62.13c10.8,38.68 27.8,70.71 41.4,97.02c15.8,-20.4 29.1,-44.03 41.7,-73.57c29.2,-71.37 33.8,-145.59 30,-194.42c13.1,43.66 25.4,116.04 16.8,192.75c-5.5,43.86 -20,80.78 -33.2,108.48c22.2,-18.19 41.3,-40.25 56.9,-65.74c11,-18.46 20.6,-38.4 26.9,-58.43c5.9,-19.94 9.7,-40.53 11.7,-61.48c4.2,-41.91 1.3,-85.3 -5.5,-126.75c-16.1,-81.43 -52.4,-151.31 -72.7,-190.18c-8,4.25 -20.3,11.64 -34,22.9" fill-rule="nonzero" id="path6394"></path>
						</g>
						<g id="g6396" transform="scale(1.05569) matrix(0.133333, 0, 0, -0.133333, 0, 2525.99)">
									<path d="m15856.1,3162.58c54.8,38.18 106.9,70.39 168.3,82.23c58.5,14.77 119.3,17.24 181.3,-0.29c19.1,-5.3 37.8,-12.5 56.1,-21.59c-21.4,0.19 -44.9,-0.86 -69.7,-3.7c-34.9,-3.98 -65.3,-10.89 -90.7,-18.66c-25.8,-7.39 -49.1,-13.45 -65.5,-19.8c19.8,2.09 45.9,3.13 75.3,3.32c28.5,0.95 61.6,-0.1 98.1,-5.21c34.5,-4.74 65.2,-12.31 90.7,-20.65c-24.2,-23.12 -58.4,-51.91 -102.3,-72.85c-46.4,-18.18 -101.3,-29.17 -160.6,-20.64c-83,13.82 -143.6,61.19 -181,97.84" fill-rule="nonzero" id="path6398"></path>
						</g>
						<g id="g6400" transform="scale(1.06733) matrix(0.133333, 0, 0, -0.133333, 0, 2498.45)">
									<path d="m16068.9,2877.27c8.1,44.88 26.2,80.95 43.2,115.34c17.1,34.19 37.5,62.39 56.5,84.41c9,-21.74 17.3,-47.5 22.3,-77.67c6.5,-37.76 6.8,-74.48 4,-107.84c-3.8,-32.42 -11.9,-60.34 -19,-83.2c10.9,19.68 25.4,43.85 35.9,74.77c10.3,31.29 19.1,67.08 22.8,105.31c5,51.9 1,92.57 -8.9,125.73c21.6,-25.48 39.5,-55.56 49.4,-87.32c24.9,-78.04 12,-168.36 -20.4,-242.75c-34.2,-72.52 -78.7,-137.35 -109.1,-166.96c-14.2,12.08 -42.2,40.66 -61,84.32c-18.4,42.73 -29.9,102.78 -15.7,175.86" fill-rule="nonzero" id="path6402"></path>
						</g>
						<g id="g6404" transform="scale(1.0389) matrix(0.133333, 0, 0, -0.133333, 0, 2566.82)">
									<path d="m15876.2,3060.27c29.1,15.5 60.3,23.58 89.7,32.15c29.2,9.05 59.1,13.57 89.5,14.05c15.1,0.19 30.3,-0.57 45.6,-2.4c14.9,-1.06 29.2,-2.51 43.7,-5.49c29.1,-5.58 57.9,-15.5 85.5,-29.75c18.2,-9.43 35.7,-20.98 52.3,-34.26c-22.1,4.91 -46.9,8.76 -73.7,10.68c-67.9,3.47 -126.3,0.67 -161.1,-5.58c38.9,-2.69 102,-15.59 169.5,-37.73c32.2,-11.36 59.9,-24.45 82.8,-37.35c-53.2,-38.41 -159.6,-74.69 -268.6,-34.94c-78.2,32.05 -125.9,87.3 -155.2,130.62" fill-rule="nonzero" id="path6406"></path>
						</g>
						<g id="g6408" transform="scale(1.04717) matrix(0.133333, 0, 0, -0.133333, 0, 2546.55)">
									<path d="m16060.5,2474.39c-11.8,23.78 -22.9,56.73 -24.8,95.98c-2.3,39.82 6.1,82.89 26.9,135.7c18.2,43.83 43.1,78.88 69.6,106.95c26.8,27.79 51.7,53.86 75.3,70.67c4.5,-22.92 6.8,-49.56 5.7,-80.22c-1.8,-79.07 -33.2,-139.9 -56.4,-182.68c29.7,33.9 74.6,87.28 96.4,163.39c11.8,38.11 17,71.81 18.2,99.89c10.7,-23.97 17.5,-49.56 20.4,-76.39c8.2,-81.75 -22.5,-166.64 -70.8,-229.29c-23.4,-32.37 -49.3,-61.5 -73.5,-85.76c-24.9,-23.2 -49,-39.82 -66.3,-52.14c-5.5,7.17 -13.3,18.63 -20.7,33.9" fill-rule="nonzero" id="path6410"></path>
						</g>
						<g id="g6412" transform="scale(1.02059) matrix(0.133333, 0, 0, -0.133333, 0, 2612.87)">
									<path d="m15892.3,3010.71c31.5,8.82 62.8,12.84 93.8,12.54c30.1,2.26 59.6,1.67 88.9,-3.82c29.1,-5.09 58.2,-15.18 85.3,-27.24c26.6,-10.97 52.2,-26.16 75.7,-45.36c24.2,-19.6 45.7,-43.6 64,-71.72c-27.6,14.79 -63.3,30.47 -105.6,42.03c-66.4,21.56 -122.5,27.83 -157.2,28.12c37,-10.39 93.4,-30.67 155,-70.25c27.9,-18.23 50.1,-34 68.7,-50.56c-30.1,-11.76 -70.9,-15.09 -113.5,-12.54c-21.4,1.47 -43.5,5 -65.6,11.46c-11,3.13 -22.1,7.05 -33,11.86c-11.3,5.68 -22.4,12.05 -33.3,19.4c-68.7,46.05 -103.6,108.56 -123.2,156.08" fill-rule="nonzero" id="path6414"></path>
						</g>
						<g id="g6416" transform="scale(1.02444) matrix(0.133333, 0, 0, -0.133333, 0, 2603.05)">
									<path d="m16054.2,2608.15c25.6,37 55,65.7 84.8,87.37c29.7,22.16 60.7,35.63 85.5,49.98c-1.3,-21.97 -4.1,-49.3 -12.6,-75.65c-21.7,-69.8 -64,-125.83 -96,-161.46c36,26.75 90.2,70.97 130.3,134.51c23.8,41.59 36.6,78.97 43.6,109.14c7.7,-30.17 10.2,-61.4 6.5,-93.42c-4.9,-40.32 -18,-81.7 -39.4,-114.7c-21.2,-33.67 -48.5,-64.33 -77.7,-91.27c-57.3,-56.32 -125.4,-85.9 -163.8,-103.27c-16.5,33.48 -48.2,147.49 38.8,258.77" fill-rule="nonzero" id="path6418"></path>
						</g>
						<path d="m2123.55,2263.39c4.33,-0.29 8.51,0 12.52,0.84c4.03,0.89 7.79,1.43 11.44,2.99c7.23,2.88 13.85,7.93 18.77,13.85c2.4,3.01 4.4,6.47 5.91,10.28c-3.05,-2.45 -6.88,-4.79 -11.64,-7.41c-8.03,-4.57 -15.13,-6.61 -19.65,-7.53c4.56,2.21 11.31,6.17 18.15,12.72c3.05,2.92 5.59,5.95 7.48,8.35c-4.25,0.43 -9.64,-0.09 -15.13,-1.52c-5.51,-1.48 -11.15,-4 -16.12,-9.25c-7.6,-7.72 -10.45,-16.67 -11.72,-23.31" fill-rule="nonzero" id="path6420"></path>
						<g id="g6422" transform="scale(1.00028) matrix(0.133333, 0, 0, -0.133333, 0, 2665.92)">
									<path d="m15946.6,2390.94c-2,51.99 14.8,136.56 96.1,205.64c36.3,29.1 74.4,55.59 111.2,69.98c36.7,15.7 72,22.7 100.2,27.6c-5.7,-21.1 -14.8,-42.39 -28.3,-65.89c-35.8,-62.48 -88.1,-107.77 -126.6,-135.56c40.3,18.5 101.7,51.09 154.3,102.48c20,18.69 34.5,41.38 46.5,59.88c-1.5,-21.59 -6,-43.19 -13,-64.18c-26.5,-77.19 -89.8,-131.47 -157,-172.86c-33.4,-21.59 -68.2,-33.29 -99.5,-43.58c-31.4,-10 -59.3,-16.7 -79.7,-20.9c-1.8,8.4 -3.7,21.4 -4.2,37.39" fill-rule="nonzero" id="path6424"></path>
						</g>
						<path d="m2086.37,2262.21c4.17,0.57 8.08,1.68 11.73,3.27c3.72,1.12 7.19,2.75 10.39,4.81c3.19,2.07 6.09,4.59 8.68,7.48c2.57,2.84 4.8,5.68 6.56,9.13c2.37,4.57 3.85,9.79 4.23,15.51l-0.68,0.03c-1.24,-1.79 -2.92,-3.97 -5.11,-6.33c-2.17,-2.31 -4.87,-4.88 -8.09,-7.77c-6.81,-5.91 -13.31,-9.19 -17.49,-11.01c3.96,3.05 9.69,8.07 14.96,15.65c2.16,3.12 3.81,6.09 5.12,8.8c-7.67,-2.08 -17.07,-5.84 -23.43,-15.24c-5.77,-8.76 -6.85,-17.8 -6.87,-24.32" fill-rule="nonzero" id="path6426"></path>
						<path d="m2089.12,2319.4c9.69,-5.56 19.76,-7.27 27.01,-6.93c-1.33,2.31 -3.08,4.8 -5.39,7.36c-6.32,6.95 -14.27,11.37 -19.96,13.84c5.67,-1.21 14.44,-3.81 22.6,-8.93c4.67,-2.79 8.01,-6.31 10.41,-9.28c-0.69,3.79 -2.05,7.47 -4.09,10.89c-5.32,8.91 -14.63,14.21 -24.09,17.68c-4.73,1.87 -9.44,2.6 -13.63,3.03c-4.2,0.45 -7.89,0.59 -10.57,0.6c-0.19,-4.84 1.99,-19.64 17.71,-28.25" fill-rule="nonzero" id="path6428"></path>
						<path d="m2052.56,2254.95c7.56,3.11 14.36,6.23 19.63,11.56c5.24,5.47 9.47,11.01 11.6,18.29c0.99,3.28 1.53,6.73 1.52,10.37c-1.8,-2.92 -4.2,-6.23 -7.35,-9.59c-2.91,-2.91 -5.69,-5.76 -8.27,-8.05c-2.59,-2.25 -4.93,-3.97 -6.8,-5.23c3.32,3.51 7.97,9.63 11.89,17.33c1.73,3.35 2.97,6.51 3.83,9.28c-1.92,-0.52 -4.04,-1.23 -6.23,-2.13c-2.16,-1 -4.33,-2.49 -6.48,-4.12c-4.28,-3.31 -8.29,-7.71 -11,-13.48c-4.04,-9.05 -3.45,-18.12 -2.35,-24.24" fill-rule="nonzero" id="path6430"></path>
						<path d="m2043.35,2309.6c9.71,-3.75 18.84,-3.33 25.61,-1.93c-1.64,1.81 -3.68,3.71 -6.23,5.53c-7.25,5.17 -15.6,7.68 -21.4,8.92c5.6,-0.08 14.35,-0.75 23.03,-3.89c5.92,-2.13 10.25,-5.52 13.19,-8.03c-1.37,4.13 -3.53,7.91 -6.47,11.24c-13.25,15.12 -39.55,14.16 -49.51,11.6c0.69,-4.71 5.43,-18.24 21.77,-23.44" fill-rule="nonzero" id="path6432"></path>
						<path d="m2020.28,2241.73c3.31,2.2 6.59,4.07 9.39,6.43c2.83,2.35 5.25,5.04 7.31,8.01c4.15,5.8 7.11,12 7.83,19.29c0.52,4.8 0.05,9.8 -1.52,14.88l-0.23,-0.08c-0.99,-3.93 -3.05,-9.95 -7.19,-16.47c-2.25,-3.33 -4.37,-6.71 -6.47,-9.35c-2.07,-2.67 -4.03,-4.76 -5.6,-6.32c2.55,4.01 5.92,10.69 8.23,18.87c0.97,3.27 1.56,6.23 1.84,8.85c-6.32,-3.41 -12.68,-11.08 -15.37,-20.95c-2.41,-8.92 -0.32,-17.51 1.79,-23.17" fill-rule="nonzero" id="path6434"></path>
						<path d="m1980.92,2307.68c1.56,-2.69 4.04,-5.92 7.72,-8.64c3.65,-2.71 8.47,-4.88 14.92,-6.19c5.21,-0.96 10.05,-0.83 14.36,-0.09c2.17,0.35 4.17,0.93 6.08,1.44c1.95,0.43 3.73,0.95 5.33,1.49c-1.89,1.52 -4.19,3.01 -6.93,4.43c-7.93,3.83 -16.24,4.47 -22.01,4.6c5.45,0.83 13.72,2.35 22.84,0.33c4.68,-1.03 8.48,-2.44 11.45,-3.95c-1.84,2.91 -4.13,5.45 -6.92,7.64c-3.8,2.97 -8.19,5.01 -12.81,6.33c-4.51,1.07 -9.23,1.31 -13.8,1.13c-9.16,-0.31 -17.64,-2.47 -22.12,-4.52c0.33,-1 0.97,-2.4 1.89,-4.01" fill-rule="nonzero" id="path6436"></path>
						<path d="m1986.15,2200.23c7.57,6.65 12.36,15.05 16.11,23.27c1.75,4.25 2.89,8.87 3.51,13.6c0.79,4.47 0.95,9.17 0.41,13.96c-0.41,3.61 -1.24,7.23 -2.51,10.8c-0.4,-4.17 -1.13,-8.83 -2.37,-13.77c-2.45,-10.57 -5.75,-18.65 -8.39,-23.12c1.37,5.83 2.93,15.11 2.41,27.11c-0.09,5.47 -0.65,10.4 -1.43,14.61c-2.04,-1.6 -4.48,-3.25 -6.57,-5.73c-2.11,-2.44 -4.2,-5.24 -6.07,-8.35c-1.87,-3.12 -3.51,-6.56 -4.69,-10.28c-1.03,-3.92 -1.52,-8.23 -1.4,-12.69c0.4,-13.05 5.92,-22.68 10.99,-29.4" fill-rule="nonzero" id="path6438"></path>
						<path d="m1920.92,2275.39c5.73,-6.08 17.4,-13.52 34.52,-12.11c6.91,0.55 13.49,1.76 18.93,3.92c2.75,1.04 5.29,2.24 7.6,3.51c2.36,1.16 4.63,2.21 6.57,3.36c-3.36,2.24 -7.44,4.51 -12.4,6.37c-11.35,3.87 -22.65,3.57 -30.29,2.65c6.77,2.21 17.29,5.48 29.47,4.45c8.84,-0.85 15.59,-3.2 20.47,-5.56c-3.41,3.99 -7.53,7.25 -12.31,9.69c-23.99,13.09 -55.83,-3.37 -66.56,-11.27c0.73,-1.2 2.05,-3 4,-5.03" fill-rule="nonzero" id="path6440"></path>
						<path d="m1958.49,2166.64c4.84,8.57 8.84,16.68 9.67,25.97c1.55,8.69 0.88,17.95 -2.52,26.93c-0.49,1.36 -1.08,2.73 -1.73,4.07c0.08,-1.75 0.16,-3.53 0.15,-5.39c-0.01,-5.36 -0.49,-10.01 -1.2,-13.95c-0.36,-1.96 -0.76,-3.73 -1.19,-5.32c-0.29,-1.69 -0.61,-3.19 -0.91,-4.47c-0.04,1.51 -0.11,3.23 -0.25,5.13c-0.05,1.85 -0.12,3.83 -0.31,6c-0.36,4.35 -1.11,9.36 -2.48,14.91c-1.35,5.31 -3.01,9.99 -4.67,13.88c-3.09,-3.56 -7.28,-9.24 -10.29,-16.37c-2.87,-7.25 -3.77,-16.55 -1.53,-25.91c3.24,-12.19 11.25,-20.48 17.27,-25.49" fill-rule="nonzero" id="path6442"></path>
						<path d="m1880.35,2224.81c6.8,-4.53 19.07,-8.81 35.55,-4.03c13.91,4.53 24.44,12.68 30.31,19.41c-3.51,1.28 -7.65,2.37 -12.53,2.91c-11.53,1.13 -22.71,-1.08 -29.15,-4.07c1.39,0.97 2.99,2.05 4.77,3.15c1.93,0.99 4.05,2 6.36,2.96c4.6,1.91 9.91,3.63 15.64,4.59c5.21,0.99 10.11,0.87 14.25,0.39c-3.04,1.69 -6.29,3.03 -9.8,3.93c-12.25,2.91 -25.43,-0.63 -36.52,-6.41c-10.51,-6.24 -19.65,-14.01 -23.72,-19.01c0.97,-0.95 2.6,-2.36 4.84,-3.81" fill-rule="nonzero" id="path6444"></path>
						<path d="m1940.81,2132.56c6.25,17.87 6.05,35.97 -3.67,51.73c-1.67,2.57 -3.61,5.04 -5.81,7.37c1.12,-3.25 2.12,-6.93 2.88,-10.95c1.03,-5.03 1.2,-9.39 1.48,-13.35c0.35,-4 0.33,-7.35 0.2,-9.89c-1.2,5.65 -3.73,14.41 -8.13,24.01c-2.23,4.6 -4.64,8.56 -6.91,11.75c-2.08,-4.4 -4.93,-10.12 -5.47,-17.21c-0.52,-7.09 0.21,-14.96 3.93,-22.64c5.87,-11.07 14.69,-17.21 21.49,-20.83" fill-rule="nonzero" id="path6446"></path>
						<path d="m1854.03,2170.28c3.68,-1.41 8.73,-2.59 14.57,-2.31c5.87,0.25 12.28,2.04 19.77,5.88c6.2,3.32 11.01,7.48 14.77,11.79c4.09,4.12 7.32,8.31 9.53,11.96c-3.53,0.41 -7.67,0.51 -12.33,0c-11.59,-1.19 -20.56,-6.28 -26.36,-10.32c2.25,2.41 5.28,5.37 8.97,8.32c3.77,2.89 8.68,5.52 13.92,7.67c6,2.41 11.27,3.51 15.64,3.88c-3.84,1.43 -7.91,2.19 -12.13,2.24c-24.92,0.84 -46.31,-25.13 -51.71,-36.49c1.12,-0.71 2.96,-1.72 5.35,-2.61" fill-rule="nonzero" id="path6448"></path>
						<path d="m1930.01,2092.57c0.84,4.63 0.97,9.13 0.49,13.53c-0.55,4.43 -0.73,8.55 -2.07,12.67c-1.2,4.09 -2.97,8.07 -5.27,11.83c-1.99,3.67 -4.53,7.12 -7.65,10.24c-1.95,1.93 -4.11,3.69 -6.47,5.28c1.45,-2.56 2.88,-5.48 4.17,-8.65c1.63,-4.43 3.4,-8.75 4.4,-12.44c1.05,-3.69 1.64,-6.87 1.97,-9.31c-2.09,5.08 -6.09,12.81 -12.61,21.05c-2.91,3.83 -5.89,7 -8.65,9.49c-0.65,-2.25 -1.36,-4.89 -1.73,-7.85c-0.17,-3.03 -0.13,-6.33 0.27,-9.77c0.85,-6.89 2.8,-14.21 8.69,-20.96c7.71,-9.16 17.31,-13.12 24.45,-15.11" fill-rule="nonzero" id="path6450"></path>
						<path d="m1871.52,2122.2c5.03,4.2 8.72,8.87 11.44,13.49c1.39,2.31 2.44,4.63 3.44,6.83c1.15,2.16 2.08,4.24 2.84,6.16c-3.37,-0.41 -7.21,-1.2 -11.4,-2.69c-10.08,-3.81 -17.49,-10.55 -22.28,-15.55c1.67,2.73 3.95,6.16 6.87,9.72c2.97,3.55 6.31,7.31 11.08,10.39c6.2,4.25 11.84,6.55 16.36,7.79c-4.68,0.85 -9.44,0.84 -14.21,-0.15c-5.88,-1.2 -11.35,-3.79 -16.33,-7.21c-4.67,-3.53 -8.68,-7.97 -12.19,-12.6c-3.39,-4.67 -6.65,-9.45 -8.52,-13.95c-1.93,-4.48 -3.33,-8.51 -4.27,-11.43c5.03,-1.96 21.92,-5 37.17,9.2" fill-rule="nonzero" id="path6452"></path>
						<path d="m1928.01,2053.48c-0.23,9.17 -3.29,17.43 -6.71,24.79c-3.84,7.32 -9.95,13.77 -16.8,18.36c-2.35,1.53 -4.91,2.81 -7.63,3.88c2.04,-2.29 4.15,-4.99 6.12,-8.04c5.92,-7.97 9.08,-15.16 10.63,-19.76c-3.01,4.49 -8.19,11.13 -16.25,17.73c-3.89,3.09 -7.08,5.47 -10.24,7.32c-0.64,-4.52 0.48,-10.63 2.47,-16.87c1.05,-3.12 2.48,-6.28 4.37,-9.31c1.84,-3.03 4.79,-5.91 7.95,-8.48c9.05,-7.19 18.89,-9.09 26.09,-9.63" fill-rule="nonzero" id="path6454"></path>
						<path d="m1838.6,2051.75c7.4,0.41 19.08,4 27.73,16.43c3.84,5.25 6.73,10.69 8.35,15.87c1.79,5.15 2.08,10.09 2.95,14.07c-3.11,-1.07 -6.69,-2.61 -10.05,-4.92c-8.69,-5.83 -14.61,-13.81 -18.15,-19.61c2.12,5.96 5.97,15.08 12.88,23.11c3.92,4.08 7.73,7.05 11.12,9.15c-3.67,-0.37 -7.28,-1.35 -10.79,-2.88c-21.65,-9.24 -29.04,-39.31 -29.59,-51.05c1.24,-0.17 3.17,-0.31 5.55,-0.15" fill-rule="nonzero" id="path6456"></path>
						<path d="m1933.92,2014.65c-1.88,8.69 -6.63,15.87 -11.25,22.19c-4.91,6.2 -12.27,11.07 -19.6,14.05c-3.92,1.52 -8.17,2.43 -12.72,2.67c3.68,-2.24 7.44,-5.43 12.27,-9.57c7.15,-6.36 11.24,-12.63 13.8,-16.67c-3.87,3.63 -9.79,8.96 -18.57,13.55c-3.93,2.08 -7.68,3.57 -10.93,4.63c1.23,-4.28 3.21,-9.36 6.36,-14.23c1.59,-2.43 3.39,-4.81 5.68,-6.97c2.47,-2.12 5.28,-4.05 8.44,-5.65c9.95,-5.01 19.63,-4.89 26.53,-3.99" fill-rule="nonzero" id="path6458"></path>
						<path d="m1872.81,2014.31c2.11,5.43 3.8,10.92 4.4,15.95c0.63,5.03 0.45,9.65 -0.03,13.52c-2.48,-1.65 -5.16,-3.8 -7.83,-6.61c-6.85,-7.35 -10.92,-16.21 -12.83,-22.4c0.53,6.04 2.55,15.55 7.24,24.61c2.73,5.6 6.73,9.69 9.8,12.57c-4.12,-1.16 -8.03,-3 -11.61,-5.61c-9.19,-6.67 -13.67,-17.28 -16.35,-27.88c-1.49,-5.33 -1.49,-10.44 -1.57,-15.03c-0.03,-4.57 0.25,-8.55 0.55,-11.41c5.07,0.32 20.71,4.33 28.23,22.29" fill-rule="nonzero" id="path6460"></path>
						<path d="m1947.75,1977.61c-1.77,3.95 -4,7.45 -6.63,10.55c-1.32,1.55 -2.73,3 -4.23,4.35c-1.47,1.37 -2.75,2.75 -4.27,3.96c-5.95,4.89 -13.41,8.17 -21.47,9.33c-3.76,0.59 -7.73,0.61 -11.79,0.01c1.79,-0.73 3.64,-1.63 5.72,-2.68c2.16,-1.03 4.44,-2.23 6.76,-3.64c7.96,-4.65 12.67,-10.04 16.25,-13.27c-4.73,2.61 -10.93,6.72 -20.07,9.36c-4.01,1.2 -7.77,1.93 -10.97,2.31c3.96,-7.61 11.01,-18.23 24.92,-21.68c10.32,-2.8 19.41,-0.81 25.76,1.4" fill-rule="nonzero" id="path6462"></path>
						<path d="m1873.08,1938.2c6.13,3.24 14.81,10.84 17.61,24.96c2.11,12.37 0.13,23.87 -2.79,30.95c-1.95,-2.03 -3.93,-4.55 -5.76,-7.67c-4.8,-8.27 -7.15,-17.59 -7.24,-23.67c-1.11,5.67 -0.83,15.2 1.63,24.69c1,3.6 2.09,6.61 3.53,9.25c-2.45,-1.63 -4.52,-3.53 -6.39,-5.72c-6.81,-8.08 -9.45,-19.23 -9.65,-29.71c0.36,-10.23 2.81,-19.79 4.45,-25.09c1.09,0.35 2.72,0.99 4.6,2" fill-rule="nonzero" id="path6464"></path>
						<path d="m1967.39,1946.03c-2.45,3.44 -5.24,6.37 -8.32,8.84c-3.12,2.45 -6.49,4.47 -9.65,6.33c-6.57,3.53 -14.21,5.28 -22.09,4.81c-5.15,-0.24 -10.33,-1.52 -15.48,-4.07l0.29,-0.61c4.12,-0.47 11.19,-1.32 19.05,-4.24c4.16,-1.53 7.72,-3.31 10.68,-5.05c3.08,-1.67 5.8,-3.15 7.72,-4.44c-2.41,0.88 -5.56,1.83 -9.21,2.68c-3.45,0.99 -7.49,1.83 -12.01,2.25c-3.71,0.35 -7.08,0.32 -10.04,0.11c2.68,-2.89 6.03,-5.88 10.04,-8.29c4.03,-2.41 9.31,-3.85 14.85,-4.32c10.28,-0.76 18.56,2.76 24.17,6" fill-rule="nonzero" id="path6466"></path>
						<path d="m1916.84,1919.96c0.08,5.69 -1.28,10.55 -2.57,15.15c-1.29,4.61 -3.13,8.56 -4.95,11.72c-1.36,-2.33 -2.68,-5.13 -3.8,-8.44c-1.49,-4.53 -2.24,-9.08 -2.53,-13.29c-0.11,-4.08 0.31,-7.77 0.76,-10.79c-0.97,2.71 -2.24,6.12 -3,10.21c-0.63,4.17 -1,8.87 -0.73,13.75c0.31,5.57 1.37,10.05 2.6,13.55c-2.88,-2.48 -5.29,-5.44 -7.12,-8.85c-4.83,-8.93 -5.48,-20.15 -3.39,-29.84c2.24,-9.59 6.27,-18.19 8.87,-22.87c4.32,2.28 15.87,11.45 15.87,29.71" fill-rule="nonzero" id="path6468"></path>
						<path d="m1990.8,1920.4c-12.2,10.67 -26.75,15.6 -41.63,12.09c-3.29,-0.76 -6.52,-1.99 -9.65,-3.83c3.35,-0.15 7.29,-0.68 12.05,-1.48c8.55,-1.57 14.85,-4.59 18.92,-6.55c-4.8,1.03 -11.92,2.47 -20.71,1.87c-3.89,-0.28 -7.33,-0.87 -10.23,-1.56c3.04,-2.64 7.08,-5.57 11.95,-7.75c2.44,-1.08 5.05,-2.01 7.89,-2.55c2.97,-0.4 6.12,-0.48 9.39,-0.12c9.93,1.08 17.23,5.83 22.01,9.87" fill-rule="nonzero" id="path6470"></path>
						<path d="m1948.31,1885.39c-0.88,5.07 -2.89,9.16 -4.75,13.16c-1.89,3.96 -4.19,7.28 -6.39,9.96c-0.77,-2.36 -1.44,-5.12 -1.8,-8.29c-0.49,-4.52 -0.31,-8.93 0.24,-12.93c0.73,-3.81 1.81,-7.23 2.81,-9.95c-1.44,2.37 -3.25,5.36 -4.79,9.04c-1.4,3.81 -2.65,8.16 -3.36,12.8c-0.97,6.33 -0.64,11.39 0.01,15.16c-2.85,-3.24 -4.96,-6.93 -6.28,-11.07c-2.96,-9.36 -1.47,-19.93 2.12,-28.81c3.81,-8.63 9.16,-15.96 12.43,-19.99c3.71,2.93 13.05,13.76 9.75,30.92" fill-rule="nonzero" id="path6472"></path>
						<path d="m2018.51,1899.12c-3.35,2.11 -6.83,3.67 -10.4,4.75c-3.53,1.13 -6.85,2.24 -10.4,2.6c-6.97,0.89 -14.45,-0.41 -20.81,-3.05c-4.36,-1.88 -8.44,-4.75 -12.04,-8.64l0.17,-0.16c3.89,1.08 9.81,1.93 17.89,2.04c8.52,0.08 15.05,-1.88 19.49,-2.81c-4.96,-0.09 -11.96,0.17 -20.27,-2c-3.4,-0.88 -6.31,-1.92 -8.77,-3.04c3.32,-1.57 7.27,-3 11.61,-3.72c4.33,-0.72 9.05,-0.8 14.25,0.87c9.24,2.8 15.39,8.51 19.27,13.17" fill-rule="nonzero" id="path6474"></path>
						<path d="m1980.92,1832.08c3.16,5.36 6.17,15.17 1.56,27.01c-1.97,4.68 -4.39,8.97 -7.04,12.52c-2.69,3.52 -5.64,6.28 -8.31,8.36c-0.33,-2.33 -0.43,-5 -0.2,-8.01c0.71,-8.68 3.8,-16.88 6.77,-21.64c-3.69,3.92 -8.43,11.31 -11.56,19.79c-1.57,4.41 -2.39,8.21 -2.44,11.71c-1.59,-3.04 -2.77,-6.45 -3.2,-9.84c-1.23,-9.35 2.15,-18.76 6.84,-26.76c4.81,-7.8 11.32,-13.45 15.05,-16.76c0.69,0.77 1.6,2.01 2.52,3.63" fill-rule="nonzero" id="path6476"></path>
						<path d="m2071.41,1890.47c-2.43,0.68 -4.84,1.15 -7.25,1.45c-2.43,0.28 -4.68,0.91 -7.04,1.07c-4.65,0.45 -9.33,0.17 -13.99,-0.68c-8.92,-0.88 -17.91,-4.39 -25.83,-10.31c-2.97,-2.24 -5.6,-4.6 -8.07,-7.49c3.69,1.52 8.24,3.48 13.24,5.05c10.47,3.28 18.72,3.65 24.2,4.31c-2.89,-0.91 -6.71,-2.61 -10.8,-4.25c-4.12,-1.71 -8.81,-3.99 -13.81,-7.08c-4.76,-2.93 -8.83,-6.01 -12.12,-8.85c4.87,-1.84 11.33,-3.67 18.48,-4.07c7.32,0.07 15.44,1.88 22.97,6.31c11.01,6.65 16.84,17.16 20.01,24.55" fill-rule="nonzero" id="path6478"></path>
						<path d="m2038.92,1796.19c2.44,8.09 2.84,21.27 -6.72,36.12c-1.95,2.93 -4.05,5.53 -6.25,7.81c-1.11,1.15 -2.24,2.21 -3.39,3.21c-1.09,1.12 -2.2,2.17 -3.32,3.16c-4.44,3.95 -9.01,6.83 -13.01,8.89c-0.24,-3.96 -0.12,-8.52 0.81,-13.63c1.11,-6.01 3.08,-11.51 5.36,-16.31c2.25,-4.85 5.08,-8.35 7.4,-11.36c-5.6,4.04 -13.32,12.35 -18.59,23.28c-1.89,3.92 -3.27,7.47 -4.08,10.95c-0.8,3.52 -1.19,6.69 -1.35,9.45c-1.77,-4.99 -2.59,-10.25 -2.39,-15.69c0.73,-12.95 8.12,-25.03 17.21,-34.21c4.64,-4.33 9.61,-8.08 14.16,-11.12c2.28,-1.52 4.45,-2.87 6.43,-4.04c2,-1.09 3.84,-1.85 5.36,-2.53c0.68,1.25 1.59,3.31 2.36,6.01" fill-rule="nonzero" id="path6480"></path>
						<path d="m2114.27,1883.12c-4.92,0.37 -9.65,0.03 -14.24,-0.96c-4.55,-0.72 -8.87,-1.61 -13.07,-3.39c-8.43,-3.75 -15.97,-8.48 -22.01,-15.75c-0.92,-1.09 -1.81,-2.25 -2.63,-3.48c1.45,0.91 2.96,1.81 4.55,2.68c9.11,4.69 17.13,7.76 22.16,9.05c-5.11,-2.83 -12.93,-8.44 -21.01,-15.8c-3.89,-3.71 -7.08,-7.41 -9.61,-10.73c8.96,-2.57 28.32,-3.28 42.43,10.81c8.95,9.16 12.11,19.76 13.44,27.56" fill-rule="nonzero" id="path6482"></path>
						<path d="m2103.09,1786.56c0.52,8.28 -1.93,20.96 -14.35,32.49c-5.4,5.33 -11.21,8.91 -16.81,11.31c-5.59,2.41 -10.79,4.59 -15.12,5.53c0.63,-3.73 1.75,-7.95 3.71,-12.55c4.65,-11.29 12.45,-18.35 18.16,-23.05c-6.11,3.03 -15.4,8.15 -22.69,17.8c-3.39,4.28 -5.8,8.37 -7.51,12.04c0.07,-3.43 0.56,-6.84 1.56,-10.23c3.61,-12.16 13.15,-22.39 23.87,-28.41c5.31,-3.19 10.79,-5.85 15.75,-7.73c4.97,-1.57 9.4,-2.63 12.57,-3.29c0.32,1.31 0.73,3.43 0.87,6.09" fill-rule="nonzero" id="path6484"></path>
						<path d="m2152.75,1884.83c-4.76,-0.6 -9.2,-1.84 -13.37,-3.68c-4.19,-1.69 -8.19,-3.29 -11.85,-5.81c-3.67,-2.4 -7.04,-5.51 -10.05,-8.75c-3.01,-3.05 -5.65,-6.64 -7.79,-10.65c-1.39,-2.69 -2.55,-5.59 -3.47,-8.64c2.25,2.53 4.93,5.16 8.03,7.73c3.84,3.04 7.53,6.07 10.83,8.25c3.31,2.21 6.23,3.79 8.49,4.88c-4.31,-3.64 -10.65,-10.13 -16.76,-19.19c-2.85,-4.15 -5.08,-8.15 -6.69,-11.67c2.43,0.05 5.23,0.24 8.23,0.72c3,0.79 6.2,1.84 9.41,3.31c6.4,3.04 12.91,6.99 17.63,14.75c6.69,10.43 7.63,21.08 7.37,28.75" fill-rule="nonzero" id="path6486"></path>
						<path d="m2163.37,1790.91c-1.19,7.84 -6.19,19.76 -20.24,27.77c-5.96,3.84 -11.99,6.07 -17.6,7.31c-2.81,0.64 -5.52,0.89 -8.05,1.24c-2.55,0.44 -4.92,0.68 -7.05,0.8c1.41,-3.32 3.4,-6.99 6.17,-10.84c6.81,-9 15.71,-14.31 22.09,-17.55c-3.2,0.83 -7.28,2.04 -11.67,3.87c-4.4,1.84 -9.12,4.09 -13.59,7.91c-5.09,4.12 -8.67,8.24 -11.17,11.92c0.68,-4.07 2.07,-8.01 4.12,-11.75c3,-5.41 7.24,-10.05 12.17,-13.85c4.92,-3.43 10.55,-6.07 16.21,-8.08c11.36,-4.4 22.69,-4.67 29,-4.67c0.05,1.32 0.01,3.4 -0.4,5.92" fill-rule="nonzero" id="path6488"></path>
						<g id="g6490" transform="scale(1.01043) matrix(0.133333, 0, 0, -0.133333, 0, 2639.14)">
									<path d="m16276.2,5724.89c-32.5,12.27 -62.6,26.33 -89.3,45.33c-13.5,9.2 -26.1,19.69 -38.1,30.48c-12.5,9.4 -24.3,19.7 -35.4,30.78c-44.1,43.35 -76.3,105 -93.9,165.28c-5.3,19.49 -8.7,39.78 -10.2,60.76c11.2,-18.8 24.9,-37.8 40.4,-58.19c43.3,-61.36 87.2,-99.76 116.4,-121.43c-24.9,31.87 -60.5,84.02 -89.2,157.26c-13.3,35.23 -22.7,65.71 -28.7,92.34c34.2,-6.14 76.9,-27.92 118.7,-56.62c20.7,-15.24 41.3,-31.67 58.8,-54.23c17.3,-23.36 32.4,-49.78 43.7,-79.77c30.6,-82.54 21.1,-157.46 6.8,-211.99" fill-rule="nonzero" id="path6492"></path>
						</g>
						<g id="g6494" transform="scale(1.02279) matrix(0.133333, 0, 0, -0.133333, 0, 2607.25)">
									<path d="m16105.1,6134.62c-44,-13.1 -88.2,-23.27 -127.6,-23.37c-39.7,-1.85 -74.8,5.77 -105.2,8.9c15.1,20.63 34.1,41.85 58.4,61.01c61,49.37 131.5,74.01 181,86.53c-47.3,-1.86 -121.1,-9.78 -193.7,-40.58c-49.7,-23.95 -85.1,-52.6 -109.5,-76.94c11.7,32.95 29.2,63.45 53.1,90.54c58.7,69.51 145.2,96.79 230.2,108.81c21.3,2.74 42.5,5.19 62.5,5.38c19.9,-0.58 38.9,-1.86 56.9,-3.62c35.8,-3.51 66.7,-8.9 88.8,-13.29c-5.7,-38.62 -48.7,-158.3 -194.9,-203.37" fill-rule="nonzero" id="path6496"></path>
						</g>
						<g id="g6498" transform="scale(1.02753) matrix(0.133333, 0, 0, -0.133333, 0, 2595.22)">
									<path d="m16258.5,5499.09c-13,10.51 -26.4,19.85 -39.4,29.29c-12.6,9.74 -24.4,20.25 -35.3,31.44c-22.1,21.7 -39.1,49.44 -56.3,72.89c-32.7,49.63 -52.2,109.68 -54.6,173.52c-1.2,20.15 0.1,40.88 3.2,61.9c7.4,-20.44 16.3,-44.38 27.6,-69.97c28.6,-66.67 64.7,-108.32 86.3,-138.01c-15.5,38.45 -40.7,91.39 -53,166.32c-5.9,34.75 -8.1,66.28 -8.1,93.24c29,-16.74 65.3,-42.04 97.6,-77.18c8,-8.76 15.8,-18.2 23.2,-28.12c6.9,-10.71 13.1,-22.58 18.9,-34.75c11.4,-24.42 20.1,-51.38 24.8,-80.68c6.6,-41.06 3.9,-78.63 -3.2,-111.91c-7.8,-34.26 -19.9,-64.04 -31.7,-87.98" fill-rule="nonzero" id="path6500"></path>
						</g>
						<g id="g6502" transform="scale(1.04752) matrix(0.133333, 0, 0, -0.133333, 0, 2545.7)">
									<path d="m16281.1,5943.17c-29.2,-44.39 -93.7,-104.24 -203.1,-115.32c-23.1,-2.38 -45.1,-2.19 -66,-0.09c-21.5,0.86 -42.2,2.96 -61.4,6.68c-38.4,7.25 -71.6,19.76 -97.8,32.17c17.4,14.89 39.1,29.79 65.9,43.34c67.2,33.22 140.2,45.06 187.1,43.25c-42.8,11.26 -115.7,15.65 -190,1.81c-38,-6.68 -70.5,-20.62 -95.8,-34.66c15.5,21.58 34.5,40.67 56.6,57.19c66.8,48.21 153,58.04 234.3,53.07c78.6,-9.54 149.9,-36.46 189.1,-52.69c-3.3,-8.3 -9.5,-20.62 -18.9,-34.75" fill-rule="nonzero" id="path6504"></path>
						</g>
						<g id="g6506" transform="scale(1.04371) matrix(0.133333, 0, 0, -0.133333, 0, 2554.99)">
									<path d="m16226.5,5236.34c-11.1,11.5 -20.2,24.53 -30.2,36.13c-10.2,11.49 -19.4,23.47 -27.6,35.93c-16.4,24.91 -29.1,51.83 -38.1,80.09c-21.3,52.51 -28.4,111.34 -18,171.03c5.2,30.66 15.2,60.84 30.3,90.25c0.3,-31.33 3.8,-70.13 13.9,-112.96c7.5,-32.77 17.8,-60.65 27.6,-84.7c8.8,-25.58 18.1,-46.18 25.8,-61.7c-4.2,18.87 -8.5,43.02 -11.3,71.67c-3.1,28.26 -6.4,58.63 -5.2,93.7c0.9,31.43 4.8,59.79 9.8,83.55c22.6,-22.42 48.6,-51.26 67.5,-88.34c17.3,-38.9 29,-84.31 27.1,-134.33c-2,-77.22 -41.6,-141.13 -71.6,-180.32" fill-rule="nonzero" id="path6508"></path>
						</g>
						<g id="g6510" transform="scale(1.06865) matrix(0.133333, 0, 0, -0.133333, 0, 2495.36)">
									<path d="m16064.8,5484.39c-42.3,4.12 -78.7,16.47 -110.8,31.16c-33.5,12.92 -61.7,29.39 -84,45.2c19,9.45 41.7,18.53 68.6,25.27c34.7,8.32 70,12.07 100.5,10.39c30.2,-1.97 57.6,-7.12 79.5,-12.36c-19,9.27 -44,20.03 -72.9,29.2c-30.1,7.86 -65,13.01 -101.3,13.94c-45.1,1.12 -81.7,-5.33 -109.7,-13.29c21.4,20.59 45.9,37.25 73.9,48.95c35.8,15.15 74.3,21.24 113.4,21.05c39,-0.19 78.9,-6.36 113.6,-19.46c70.1,-25.08 134.3,-59.89 164.4,-86c-10.4,-14.51 -34.7,-42.95 -73.6,-64.19c-38.2,-20.78 -92.5,-36.4 -161.6,-29.86" fill-rule="nonzero" id="path6512"></path>
						</g>
						<g id="g6514" transform="scale(1.05866) matrix(0.133333, 0, 0, -0.133333, 0, 2518.91)">
									<path d="m16175.2,4945.49c-63.7,103.33 -84,217.91 -43.6,324.46c10.3,25.69 24.5,50.44 42.8,73.4c-4.3,-27.49 -7.1,-61.21 -5.2,-98.9c4.8,-61.78 13.1,-116.19 23.3,-147.26c-0.8,18.23 -0.8,41.47 1.5,68.48c1.2,13.41 2.9,27.86 5.4,43.07c2,14.74 4.3,29.85 7.8,45.72c6.3,28.53 14.7,53.75 23.4,74.43c37.7,-47.13 69.4,-134.69 46.8,-228.3c-19.3,-73.3 -66.3,-123.93 -102.2,-155.1" fill-rule="nonzero" id="path6516"></path>
						</g>
						<g id="g6518" transform="scale(1.08528) matrix(0.133333, 0, 0, -0.133333, 0, 2457.12)">
									<path d="m16272.1,5135.99c-41.5,-26.17 -113.4,-49.66 -208.3,-18.33c-86.2,26.35 -139.7,84.49 -176.8,122.36c19.1,4.98 41.4,8.48 66.9,9.03c17,0.46 33.9,-0.19 49.7,-2.21c15.3,-2.4 30,-5.71 43.8,-9.68c27.9,-7.74 52.4,-17.96 71.8,-27.27c-33.1,23.77 -83.1,61.27 -152.6,75.74c-25.5,6.17 -48.4,8.94 -68.7,9.95c17.7,8.57 36.8,14.74 56.5,18.62c36.7,7 74.1,5.15 110.8,-2.59c35.8,-8.38 68.7,-24.41 99.8,-42.1c31,-17.97 59.2,-38.52 82.9,-57.96c22.1,-20.64 39.7,-40.36 52.1,-54.83c-5.9,-5.43 -15.4,-12.99 -27.9,-20.73" fill-rule="nonzero" id="path6520"></path>
						</g>
						<g id="g6522" transform="scale(1.06837) matrix(0.133333, 0, 0, -0.133333, 0, 2496.01)">
									<path d="m16151.5,4671.24c-41.4,109.13 -38.5,221.08 18.9,313.18c19.8,30.71 46.5,58.23 80,80.6l2.4,-4.03c-13.4,-27.89 -30.9,-72.64 -38.9,-129.73c-10.9,-61.5 -11.1,-113.82 -7.4,-145.64c5,34.91 16.8,87.89 45.2,146.95c11.2,23.96 22,43.71 33.5,60.94c10.4,-25.28 14.8,-57.1 13.9,-90.8c-0.8,-33.6 -7.4,-69.36 -23.5,-104.55c-31.4,-65.05 -84.9,-104.27 -124.1,-126.92" fill-rule="nonzero" id="path6524"></path>
						</g>
						<g id="g6526" transform="scale(1.09612) matrix(0.133333, 0, 0, -0.133333, 0, 2432.82)">
									<path d="m16072.6,4764.7c-34.6,18.62 -61.9,41.79 -83.3,65.96c-21.5,24.18 -36.7,49.63 -51.1,69.98c18.6,0.27 40.8,-0.82 63.8,-5.75c62.1,-14.05 114.2,-46.71 147.9,-72.26c-26.6,29.38 -69.1,74.18 -128.5,104.37c-35.2,16.61 -66.3,25.09 -91.8,29.38c24.7,8.76 50.9,13.14 77.8,12.68c35.4,-0.73 71.6,-8.67 102.7,-23.72c30.9,-15.14 59.6,-35.76 85.3,-58.3c25.2,-22.71 49.2,-46.52 66.1,-69.97c16.6,-23.45 29.7,-45.07 38.5,-61.03c-28.6,-17.98 -122.2,-54.92 -227.4,8.66" fill-rule="nonzero" id="path6528"></path>
						</g>
						<g id="g6530" transform="scale(1.07588) matrix(0.133333, 0, 0, -0.133333, 0, 2478.59)">
									<path d="m16112.8,4409.12c-3,28.44 -8.7,54.93 -8.4,81.42c-0.1,26.49 3.5,52.42 10.4,77.52c11.5,49.54 32.8,95.27 69.5,133.56c16.5,17.48 35.7,32.81 57.8,45.36c-11.7,-21.1 -23.8,-47.21 -33.6,-78.16c-9.5,-28.26 -13,-53.82 -18.3,-77.43c-5.2,-23.52 -7.8,-43.87 -9.2,-59.58c10.7,32.53 32.1,82.07 62.7,131.8c14.5,22.31 29.5,40.81 43.5,55.77c5.8,-27.42 12.8,-60.88 7.6,-98.25c-5.9,-37.45 -19.2,-77.24 -45.2,-113.86c-38.2,-55.39 -95.4,-83.37 -136.8,-98.15" fill-rule="nonzero" id="path6532"></path>
						</g>
						<g id="g6534" transform="scale(1.10176) matrix(0.133333, 0, 0, -0.133333, 0, 2420.37)">
									<path d="m16086.5,4436.53c-27.2,22.33 -47.6,47.38 -63,72.53c-15.2,25.14 -25.1,50.46 -35.3,71.88c16.7,-3.36 36.2,-8.53 55.8,-17.24c54.6,-25.42 96.8,-66.35 123.3,-96.58c-19.5,32.86 -50.4,82.96 -100,122.99c-35.4,26.77 -67.2,41.75 -92.4,50.46c29,5.9 58.3,5.9 87.8,-0.18c33.4,-6.99 64.9,-21.42 92.7,-40.75c26.2,-19.88 49.2,-44.39 69.1,-70.16c20,-25.69 36.7,-52.64 50.1,-77.24c12.5,-24.78 19.7,-47.56 25.4,-64.17c-15.2,-5.45 -46.7,-13.62 -85,-9.71c-19.1,1.9 -40,6.8 -61.4,16.15c-20.9,9.35 -43.2,22.96 -67.1,42.02" fill-rule="nonzero" id="path6536"></path>
						</g>
						<g id="g6538" transform="scale(1.08008) matrix(0.133333, 0, 0, -0.133333, 0, 2468.95)">
									<path d="m16083.2,4151.27c-4.7,54.81 8.6,105.82 28.1,151.01c17.7,44.72 48.2,84.53 89.3,114.15c27.4,19.82 59.3,34.35 95.3,42.41l0.3,-1.58c-20.6,-19.62 -50.2,-52.96 -76,-100.64c-14.4,-25.46 -22.5,-49.35 -32,-71.1c-9.3,-21.76 -15.7,-40.93 -20,-55.83c16.4,29.35 46.2,73.05 84.2,114.9c16.6,17.22 32.6,31.01 47.6,41.84c-1.3,-25.27 -5.3,-53.7 -15.5,-82.21c-12.7,-28.79 -31.1,-57.59 -57.4,-82.96c-47.6,-45.73 -102.6,-62.86 -143.9,-69.99" fill-rule="nonzero" id="path6540"></path>
						</g>
						<g id="g6542" transform="scale(1.10311) matrix(0.133333, 0, 0, -0.133333, 0, 2417.41)">
									<path d="m16270.1,4057.53c-42.3,-0.27 -110.6,15.23 -166.5,82.67c-22.8,27.47 -37.7,56.39 -47.4,84.4c-11.8,27.65 -19.4,54.3 -23.3,76.97c15.3,-5.99 31.6,-14.51 49,-26.02c52.6,-33.36 83.4,-80.05 102.7,-113.68c-5.9,17.49 -14.1,39.61 -25.7,63.27c-11.3,23.66 -30.1,48.59 -50.4,72.17c-21.4,24.2 -42.2,41.78 -60.9,54.29c23.3,-1.08 45.9,-5.98 67.9,-14.95c30.2,-12.33 56.7,-31.28 79.7,-54.12c11.5,-11.43 22.1,-23.84 32,-36.72c8.7,-13.05 16.3,-26.65 23.3,-40.34c27.8,-55.03 42.7,-112.23 49.5,-145.49c-6.9,-1.36 -17.2,-2.45 -29.9,-2.45" fill-rule="nonzero" id="path6544"></path>
						</g>
			</g>
</svg>
